<svg width="293" height="602" viewBox="0 0 293 602" fill="none" xmlns="http://www.w3.org/2000/svg">
<path fill-rule="evenodd" clip-rule="evenodd" d="M649.057 152.298C703.084 204.229 740.821 290.258 716.266 361.059C691.535 432.366 596.915 444.162 533.59 485.224C491.439 512.556 454.675 543.367 407.691 561.15C353.204 581.773 295.623 615.755 240.8 596.043C185.449 576.14 169.403 508.039 132.527 462.212C87.4604 406.206 1.64041 369.905 0.989822 298.022C0.344298 226.693 80.8353 185.652 129.553 133.548C176.129 83.7328 210.813 7.06007 278.738 0.963889C346.81 -5.14551 386.417 78.9618 449.683 104.816C514.509 131.308 598.569 103.768 649.057 152.298Z" fill="#3B82F6"/>
</svg>
