<svg width="852" height="823" viewBox="0 0 852 823" fill="none" xmlns="http://www.w3.org/2000/svg">
<path fill-rule="evenodd" clip-rule="evenodd" d="M721.057 287.298C775.084 339.229 812.821 425.258 788.266 496.059C763.535 567.366 668.915 579.162 605.59 620.224C563.439 647.556 526.675 678.367 479.691 696.15C425.204 716.773 367.623 750.755 312.8 731.043C257.449 711.14 241.403 643.039 204.527 597.212C159.46 541.206 73.6404 504.905 72.9898 433.022C72.3443 361.693 152.835 320.652 201.553 268.548C248.129 218.733 282.813 142.06 350.738 135.964C418.81 129.854 458.417 213.962 521.683 239.816C586.509 266.308 670.569 238.768 721.057 287.298Z" fill="#60A5FA"/>
</svg>
