<svg width="221" height="651" viewBox="0 0 221 651" fill="none" xmlns="http://www.w3.org/2000/svg">
<path fill-rule="evenodd" clip-rule="evenodd" d="M-83.7558 77.2525C-29.1976 62.9033 18.8183 -22.912 67.345 5.85682C118.532 36.2028 68.9441 125.163 90.57 180.601C104.327 215.866 147.404 230.148 167.383 262.3C191.821 301.63 217.859 342.708 220.039 388.96C222.369 438.383 212.881 492.988 179.997 529.957C147.108 566.931 89.6435 565.662 44.6125 586.18C0.557404 606.254 -35.3439 649.831 -83.7558 650.135C-132.163 650.439 -180.109 623.404 -212.902 587.795C-244.08 553.94 -236.896 499.804 -259.25 459.573C-277.271 427.138 -315.077 409.662 -330.603 375.962C-347.479 339.334 -352.687 298.733 -351.929 258.412C-351.077 213.035 -354.901 161.429 -325.917 126.504C-296.88 91.5138 -245.441 85.4649 -200.883 76.4028C-162.137 68.5225 -121.995 87.3096 -83.7558 77.2525Z" fill="#F97316"/>
</svg>
