<svg width="104" height="79" viewBox="0 0 104 79" fill="none" xmlns="http://www.w3.org/2000/svg">
<path d="M69.334 28.1873L98.3165 56.3928" stroke="#C4C4C4" stroke-width="2"/>
<path d="M100.937 58.1076C100.235 59.0812 99.0465 59.2376 98.3177 58.7123C97.5888 58.187 97.3614 57.0098 98.0631 56.0363C98.7647 55.0628 99.9534 54.9063 100.682 55.4316C101.411 55.9569 101.639 57.1341 100.937 58.1076Z" stroke="#C4C4C4" stroke-width="2"/>
<path d="M69.9369 28.1076C69.2352 29.0812 68.0465 29.2376 67.3177 28.7123C66.5888 28.187 66.3614 27.0098 67.0631 26.0363C67.7647 25.0628 68.9534 24.9063 69.6823 25.4316C70.4111 25.9569 70.6385 27.1341 69.9369 28.1076Z" stroke="#C4C4C4" stroke-width="2"/>
<path d="M17.7912 21.2122L18.5074 19.3448C17.5891 18.9926 16.5509 19.3604 16.0592 20.2122C15.5674 21.064 15.7679 22.147 16.5321 22.7661L17.7912 21.2122ZM79.6087 44.9206L80.3058 46.7952L85.2691 44.9495L80.3248 43.0533L79.6087 44.9206ZM23.6326 65.7367L22.2317 64.3093C21.5581 64.9704 21.4383 66.0126 21.9445 66.8093C22.4507 67.606 23.445 67.9403 24.3297 67.6113L23.6326 65.7367ZM45.8422 43.9405L47.2431 45.368L48.843 43.7978L47.1013 42.3866L45.8422 43.9405ZM17.075 23.0796L78.8925 46.788L80.3248 43.0533L18.5074 19.3448L17.075 23.0796ZM78.9116 43.0461L22.9355 63.8621L24.3297 67.6113L80.3058 46.7952L78.9116 43.0461ZM25.0335 67.1642L47.2431 45.368L44.4414 42.5131L22.2317 64.3093L25.0335 67.1642ZM47.1013 42.3866L19.0503 19.6583L16.5321 22.7661L44.5831 45.4945L47.1013 42.3866Z" fill="#F97316"/>
</svg>
