<svg width="573" height="651" viewBox="0 0 573 651" fill="none" xmlns="http://www.w3.org/2000/svg">
<path fill-rule="evenodd" clip-rule="evenodd" d="M268.244 77.2525C322.802 62.9033 370.818 -22.912 419.345 5.85682C470.532 36.2028 420.944 125.163 442.57 180.601C456.327 215.866 499.404 230.148 519.383 262.3C543.821 301.63 569.859 342.708 572.039 388.96C574.369 438.383 564.881 492.988 531.997 529.957C499.108 566.931 441.644 565.662 396.612 586.18C352.557 606.254 316.656 649.831 268.244 650.135C219.837 650.439 171.891 623.404 139.098 587.795C107.92 553.94 115.104 499.804 92.7503 459.573C74.7288 427.138 36.923 409.662 21.3966 375.962C4.52121 339.334 -0.686734 298.733 0.07074 258.412C0.92319 213.035 -2.9007 161.429 26.0829 126.504C55.1203 91.5138 106.559 85.4649 151.117 76.4028C189.863 68.5225 230.005 87.3096 268.244 77.2525Z" fill="#FCD34D"/>
</svg>
