<svg width="800" height="388" viewBox="0 0 800 388" fill="none" xmlns="http://www.w3.org/2000/svg">
<path fill-rule="evenodd" clip-rule="evenodd" d="M289.561 -314.315C324.108 -370.644 295.239 -482.151 359.603 -497.107C427.496 -512.884 457.582 -397.443 520.78 -368.045C560.983 -349.344 609.002 -372.146 651.949 -361.119C704.481 -347.63 759.785 -333.957 799.089 -296.582C841.087 -256.646 877.282 -202.754 879.396 -144.838C881.51 -86.9126 831.854 -41.4465 810.366 12.3868C789.343 65.0534 794.255 131.006 753.534 170.471C712.816 209.933 650.349 225.887 593.759 222.312C539.956 218.914 502.191 167.284 450.692 151.344C409.173 138.493 363.027 154.323 322.595 138.38C278.65 121.052 241.361 90.9121 209.346 56.1777C173.316 17.088 128.285 -23.4853 124.526 -76.5134C120.76 -129.64 159.39 -176.419 189.756 -220.174C216.162 -258.222 265.347 -274.836 289.561 -314.315Z" fill="#FCD34D"/>
</svg>
