<svg width="366" height="151" viewBox="0 0 366 151" fill="none" xmlns="http://www.w3.org/2000/svg">
<path fill-rule="evenodd" clip-rule="evenodd" d="M104.577 -197.945C151.474 -206.685 192.748 -258.956 234.46 -241.433C278.459 -222.949 235.835 -168.763 254.424 -134.996C266.249 -113.515 303.277 -104.817 320.45 -85.2325C341.457 -61.2769 363.839 -36.256 365.713 -8.08368C367.715 22.0198 359.56 55.2798 331.293 77.7976C303.023 100.319 253.627 99.5458 214.92 112.043C177.051 124.27 146.191 150.814 104.577 150.998C62.967 151.183 21.7542 134.717 -6.43411 113.027C-33.2341 92.406 -27.0589 59.4314 -46.2738 34.9265C-61.7647 15.1708 -94.2618 4.52595 -107.608 -16.0007C-122.114 -38.3109 -126.59 -63.0409 -125.939 -87.6008C-125.206 -115.24 -128.493 -146.673 -103.58 -167.946C-78.6197 -189.259 -34.4037 -192.943 3.89663 -198.463C37.2019 -203.263 71.7078 -191.82 104.577 -197.945Z" fill="#93C5FD"/>
</svg>
