<svg width="753" height="379" viewBox="0 0 753 379" fill="none" xmlns="http://www.w3.org/2000/svg">
<path fill-rule="evenodd" clip-rule="evenodd" d="M184.394 255.175V296.716C190.046 291.558 195.314 287.881 199.319 285.466C199.319 283.875 199.319 282.229 199.374 280.528C199.429 277.509 199.703 274.601 200.142 271.857C194.929 267.961 189.278 262.583 184.394 255.175Z" fill="#1E3A8A"/>
<path fill-rule="evenodd" clip-rule="evenodd" d="M273.231 28.0967H201.185C191.911 28.0967 184.394 35.6147 184.394 44.8888V46.8644C202.282 35.5599 242.448 29.6881 273.231 28.0967Z" fill="#1E3A8A"/>
<path fill-rule="evenodd" clip-rule="evenodd" d="M240.638 178.677C219.567 166.385 200.801 145.806 221.981 91.7532C221.981 91.7532 198.112 87.0887 184.394 76.5525V225.706C184.504 225.706 184.614 225.706 184.723 225.761L219.841 238.328C222.695 236.297 225.712 234.651 228.895 233.389C229.06 233.334 228.676 232.621 228.566 232.127C224.615 218.298 225.383 204.195 230.706 192.451C231.09 191.628 232.078 191.244 232.901 191.628C233.724 192.012 234.108 193 233.724 193.823C230.816 200.189 226.755 213.524 231.748 231.194C231.858 231.578 231.913 232.236 232.023 232.182C235.699 230.974 239.54 230.261 243.381 229.987C242.613 219.341 244.204 209.408 248.21 200.463C248.594 199.64 249.527 199.256 250.405 199.64C251.228 200.024 251.612 201.012 251.228 201.835C247.442 210.286 245.905 219.67 246.674 229.822C246.674 229.877 246.674 229.877 246.674 229.932C252.051 229.987 257.483 230.974 262.586 232.95C258.636 223.566 263.794 211.658 270.268 206.006L270.433 205.676C258.087 201.067 247.771 191.409 240.638 178.677Z" fill="#1E3A8A"/>
<path fill-rule="evenodd" clip-rule="evenodd" d="M612.557 254.614C620.279 253.182 628.489 253.631 636.391 255.244C637.833 255.538 639.157 255.852 640.343 256.168L640.695 256.263C640.995 256.344 641.271 256.422 641.522 256.496L642.046 256.652C642.169 256.69 642.261 256.72 642.319 256.739C643.182 257.022 643.652 257.953 643.369 258.816C643.095 259.649 642.22 260.116 641.384 259.894L640.929 259.754L640.419 259.604C640.296 259.569 640.168 259.533 640.034 259.496L639.828 259.439C638.621 259.109 637.246 258.779 635.733 258.47C628.211 256.935 620.403 256.507 613.158 257.852C600.552 260.191 591.618 267.538 587.705 281.363L587.588 281.784C582.857 299.108 575.789 310.175 567.12 316.032C561.024 320.149 554.852 321.264 549.659 320.515C548.76 320.386 548.135 319.551 548.265 318.651C548.395 317.751 549.23 317.127 550.129 317.257C554.559 317.896 559.91 316.929 565.277 313.303C573.156 307.981 579.742 297.738 584.275 281.413L584.412 280.917C588.613 265.534 598.64 257.197 612.557 254.614Z" fill="#1E3A8A"/>
<path fill-rule="evenodd" clip-rule="evenodd" d="M642.792 267.467C648.065 267.467 652.34 263.192 652.34 257.918C652.34 252.645 648.065 248.37 642.792 248.37C637.519 248.37 633.245 252.645 633.245 257.918C633.245 263.192 637.519 267.467 642.792 267.467Z" fill="#FB923C"/>
<path fill-rule="evenodd" clip-rule="evenodd" d="M615.576 89.1786C616.453 88.9363 617.36 89.4504 617.602 90.3268C617.835 91.1718 617.366 92.0452 616.546 92.3237L616.189 92.4312L615.885 92.5274C615.724 92.5797 615.548 92.6384 615.359 92.7037C614.451 93.0177 613.434 93.4122 612.336 93.8925C609.195 95.2672 606.053 97.0474 603.127 99.2709C598.3 102.94 594.555 107.444 592.29 112.866C589.579 119.354 589.083 126.94 591.222 135.758L591.328 136.186C595.591 153.162 590.027 167.786 577.546 178.284C567.379 186.836 553.343 191.575 544.248 190.069C543.351 189.921 542.744 189.073 542.893 188.176C543.041 187.279 543.889 186.672 544.786 186.821C552.854 188.156 565.951 183.735 575.427 175.764C586.873 166.136 591.972 152.942 588.25 137.458L588.135 136.988C585.705 127.313 586.217 118.861 589.252 111.597C591.758 105.599 595.873 100.649 601.135 96.6494C604.284 94.2564 607.65 92.3494 611.016 90.8761C612.066 90.4169 613.05 90.0292 613.951 89.7086L614.284 89.5916C614.887 89.3832 615.327 89.2475 615.576 89.1786Z" fill="#1E3A8A"/>
<path fill-rule="evenodd" clip-rule="evenodd" d="M640.378 96.8566L649.212 85.607L640.378 96.8566Z" fill="white"/>
<path fill-rule="evenodd" clip-rule="evenodd" d="M647.917 84.5902C648.479 83.8751 649.514 83.7507 650.229 84.3123C650.916 84.8522 651.058 85.8299 650.568 86.5399L650.507 86.6238L641.672 97.8735C641.111 98.5885 640.076 98.7129 639.361 98.1513C638.673 97.6114 638.532 96.6338 639.021 95.9237L639.083 95.8398L647.917 84.5902Z" fill="#1E3A8A"/>
<path fill-rule="evenodd" clip-rule="evenodd" d="M630.336 87.0887L639.116 75.8391L630.336 87.0887Z" fill="white"/>
<path fill-rule="evenodd" clip-rule="evenodd" d="M637.818 74.8261C638.377 74.1094 639.412 73.9818 640.129 74.5413C640.818 75.0792 640.962 76.0563 640.475 76.7679L640.413 76.852L631.634 88.1016C631.074 88.8183 630.04 88.9459 629.323 88.3865C628.634 87.8486 628.49 86.8714 628.977 86.1598L629.038 86.0758L637.818 74.8261Z" fill="#1E3A8A"/>
<path fill-rule="evenodd" clip-rule="evenodd" d="M617.716 76.9366L626.55 65.687L617.716 76.9366Z" fill="white"/>
<path fill-rule="evenodd" clip-rule="evenodd" d="M625.256 64.6701C625.817 63.9551 626.852 63.8306 627.567 64.3922C628.255 64.9322 628.396 65.9098 627.907 66.6199L627.845 66.7038L619.011 77.9534C618.449 78.6685 617.414 78.7929 616.699 78.2313C616.012 77.6913 615.87 76.7137 616.36 76.0036L616.421 75.9198L625.256 64.6701Z" fill="#1E3A8A"/>
<path fill-rule="evenodd" clip-rule="evenodd" d="M603.833 68.2112L612.613 56.9616L603.833 68.2112Z" fill="white"/>
<path fill-rule="evenodd" clip-rule="evenodd" d="M611.315 55.9487C611.874 55.2319 612.909 55.1044 613.626 55.6638C614.315 56.2017 614.459 57.1789 613.972 57.8905L613.91 57.9745L605.131 69.2241C604.572 69.9409 603.537 70.0684 602.82 69.509C602.131 68.9711 601.987 67.9939 602.474 67.2824L602.536 67.1983L611.315 55.9487Z" fill="#1E3A8A"/>
<path fill-rule="evenodd" clip-rule="evenodd" d="M596.81 74.7964L602.681 66.5649L643.506 95.7591L637.634 103.991C636.317 105.801 633.793 106.24 631.983 104.923L597.743 80.4486C595.932 79.1316 595.493 76.6073 596.81 74.7964Z" fill="#FB923C"/>
<path fill-rule="evenodd" clip-rule="evenodd" d="M678.879 146.566C679.641 146.071 680.661 146.287 681.156 147.049C681.633 147.784 681.45 148.756 680.755 149.27L680.673 149.327L662.181 161.345C661.419 161.84 660.399 161.624 659.904 160.861C659.427 160.127 659.61 159.155 660.305 158.641L660.387 158.584L678.879 146.566Z" fill="#1E3A8A"/>
<path fill-rule="evenodd" clip-rule="evenodd" d="M622.686 183.16C623.514 182.784 624.49 183.149 624.866 183.977C625.243 184.805 624.877 185.781 624.049 186.157C606.544 194.122 594.144 204.191 584.864 217.602C576.691 229.413 570.785 243.82 565.058 264.691L564.707 265.976C559.158 286.479 548.49 298.297 533.59 303.933C529.567 305.455 525.342 306.49 520.677 307.204C518.986 307.463 517.269 307.676 515.376 307.87L514.245 307.982C513.869 308.017 513.484 308.053 513.074 308.09L508.888 308.453C507.982 308.534 507.182 307.866 507.101 306.961C507.02 306.055 507.688 305.255 508.593 305.174L514.125 304.684C516.979 304.421 517.973 304.287 520.179 303.95C524.631 303.268 528.636 302.286 532.426 300.853C546.334 295.592 556.256 284.601 561.53 265.116L561.885 263.81C567.702 242.616 573.736 227.897 582.157 215.728C591.785 201.815 604.653 191.365 622.686 183.16Z" fill="#1E3A8A"/>
<path fill-rule="evenodd" clip-rule="evenodd" d="M622.325 173.793L655.303 152.391C657.388 151.074 660.132 151.623 661.504 153.708L666.442 161.336C667.759 163.422 667.21 166.165 665.125 167.537L632.147 188.939C630.062 190.256 627.319 189.707 625.947 187.622L621.008 179.994C619.691 177.909 620.24 175.165 622.325 173.793Z" fill="#FB923C"/>
<path fill-rule="evenodd" clip-rule="evenodd" d="M57.1185 259.236L57.2152 259.24C69.3579 260.162 77.899 262.71 84.1908 266.955L84.6765 267.288C89.2283 270.458 92.0317 273.872 96.2708 280.533L97.7979 282.946L98.2717 283.688C98.5735 284.158 98.8509 284.584 99.1243 284.998C103.578 291.743 107.894 296.026 113.044 298.074C119.317 300.568 126.691 299.536 135.711 294.177L136.026 293.988C147.654 287 156.259 284.87 162.954 286.793C163.827 287.043 164.332 287.955 164.081 288.829C163.831 289.703 162.919 290.208 162.045 289.957C156.443 288.349 148.804 290.208 138.068 296.603L137.724 296.809C127.736 302.829 119.208 304.068 111.827 301.134C106.021 298.825 101.329 294.227 96.6204 287.179L96.3769 286.813C96.002 286.245 95.6216 285.657 95.1859 284.974L93.7136 282.649C89.423 275.872 86.7997 272.687 82.3494 269.684C76.5796 265.791 68.5793 263.405 56.966 262.523C56.0594 262.455 55.3803 261.664 55.4491 260.757C55.5155 259.883 56.2531 259.22 57.1185 259.236Z" fill="#1E3A8A"/>
<path fill-rule="evenodd" clip-rule="evenodd" d="M50.8353 271.583C56.1083 271.583 60.383 267.308 60.383 262.034C60.383 256.761 56.1083 252.486 50.8353 252.486C45.5622 252.486 41.2876 256.761 41.2876 262.034C41.2876 267.308 45.5622 271.583 50.8353 271.583Z" fill="#FB923C"/>
<path fill-rule="evenodd" clip-rule="evenodd" d="M91.7152 131.868L61.7552 128.795C58.7372 128.465 56.5423 125.777 56.8716 122.758L60.8772 83.5767C61.2064 80.5585 63.8952 78.3634 66.9131 78.6927L96.8731 81.7657C99.8911 82.095 102.086 84.7839 101.757 87.8021L97.7511 126.984C97.4218 129.947 94.7331 132.142 91.7152 131.868Z" fill="#FB923C"/>
<path fill-rule="evenodd" clip-rule="evenodd" d="M47.2802 88.2667C47.3834 87.396 48.1484 86.7651 49.0124 86.8171L49.1088 86.8258L75.9411 90.0086C76.8439 90.1157 77.489 90.9344 77.3819 91.8373C77.2786 92.708 76.5137 93.3389 75.6497 93.2869L75.5533 93.2783L48.721 90.0954C47.8182 89.9883 47.1731 89.1696 47.2802 88.2667Z" fill="#1E3A8A"/>
<path fill-rule="evenodd" clip-rule="evenodd" d="M45.6889 101.657C45.7921 100.786 46.5571 100.155 47.4211 100.207L47.5175 100.216L74.3498 103.398C75.2526 103.506 75.8976 104.324 75.7906 105.227C75.6873 106.098 74.9224 106.729 74.0584 106.677L73.962 106.668L47.1297 103.485C46.2269 103.378 45.5818 102.559 45.6889 101.657Z" fill="#1E3A8A"/>
<path fill-rule="evenodd" clip-rule="evenodd" d="M44.0976 115.046C44.2008 114.176 44.9658 113.545 45.8298 113.597L45.9261 113.605L72.7585 116.788C73.6613 116.895 74.3063 117.714 74.1993 118.617C74.096 119.488 73.3311 120.119 72.4671 120.067L72.3707 120.058L45.5384 116.875C44.6355 116.768 43.9905 115.949 44.0976 115.046Z" fill="#1E3A8A"/>
<path fill-rule="evenodd" clip-rule="evenodd" d="M99.3996 105.583C113.131 105.147 124.41 109.719 134.471 118.871L134.925 119.288C141.937 125.761 147.243 132.909 156.087 146.831L160.614 154.007C161.81 155.896 162.754 157.372 163.714 158.847C164.211 159.609 163.995 160.629 163.233 161.125C162.471 161.621 161.451 161.405 160.955 160.643L159.841 158.921C159.131 157.816 158.378 156.633 157.484 155.218L154.759 150.892C144.981 135.368 139.583 127.972 132.255 121.307C122.802 112.707 112.34 108.467 99.504 108.874C98.5953 108.903 97.8353 108.189 97.8065 107.281C97.7777 106.372 98.491 105.612 99.3996 105.583Z" fill="#1E3A8A"/>
<path fill-rule="evenodd" clip-rule="evenodd" d="M85.5258 80.2551L88.7952 80.6423L82.8691 130.69L79.5996 130.302L85.5258 80.2551Z" fill="#1E3A8A"/>
<path fill-rule="evenodd" clip-rule="evenodd" d="M37.506 194.311C38.0546 193.586 39.087 193.443 39.812 193.992C42.3387 195.904 43.8668 198.838 43.8668 202.055C43.8668 205.066 42.4883 207.911 40.1943 209.801C39.4925 210.379 38.4551 210.278 37.8771 209.577C37.2992 208.875 37.3996 207.837 38.1014 207.259C39.6453 205.988 40.5745 204.069 40.5745 202.055C40.5745 199.893 39.5472 197.921 37.8252 196.618C37.1003 196.069 36.9573 195.036 37.506 194.311Z" fill="#1E3A8A"/>
<path fill-rule="evenodd" clip-rule="evenodd" d="M68.0654 188.665L36.2947 193.055C31.8501 193.658 28.7772 197.774 29.3808 202.164L29.6552 203.975C30.2588 208.42 34.3742 211.493 38.7639 210.89L70.5347 206.5C74.9793 205.896 78.0521 201.78 77.4485 197.39L77.1742 195.579C76.5706 191.134 72.5101 188.006 68.0654 188.665Z" fill="#FB923C"/>
<path fill-rule="evenodd" clip-rule="evenodd" d="M34.9175 200.698C35.8181 200.574 36.6488 201.203 36.773 202.104C36.8927 202.973 36.3117 203.776 35.4625 203.944L35.367 203.96L13.4732 206.978C12.5726 207.102 11.7418 206.473 11.6177 205.572C11.498 204.703 12.079 203.9 12.9282 203.732L13.0236 203.716L34.9175 200.698Z" fill="#1E3A8A"/>
<path fill-rule="evenodd" clip-rule="evenodd" d="M77.4774 195.482C108.748 186.271 132.971 190.515 163.119 208.376C163.902 208.839 164.16 209.849 163.697 210.631C163.233 211.413 162.224 211.672 161.441 211.209C132.036 193.788 108.739 189.706 78.4075 198.64C77.5354 198.897 76.6202 198.398 76.3634 197.526C76.1065 196.654 76.6053 195.738 77.4774 195.482Z" fill="#1E3A8A"/>
<path fill-rule="evenodd" clip-rule="evenodd" d="M488.438 230.535C486.902 230.535 485.53 231.084 484.433 232.182C482.073 234.816 480.921 239.315 480.921 245.571C480.921 251.827 482.073 256.327 484.433 258.961C485.53 260.059 486.902 260.607 488.438 260.607C489.975 260.607 491.347 260.059 492.444 258.961C494.803 256.327 495.956 251.827 495.956 245.571C495.956 239.315 494.803 234.816 492.444 232.182C491.347 231.139 490.03 230.535 488.438 230.535Z" fill="#1E3A8A"/>
<path fill-rule="evenodd" clip-rule="evenodd" d="M520.483 251.279V234.706L509.015 251.279H520.483Z" fill="#1E3A8A"/>
<path fill-rule="evenodd" clip-rule="evenodd" d="M463.965 251.279V234.706L452.497 251.279H463.965Z" fill="#1E3A8A"/>
<path fill-rule="evenodd" clip-rule="evenodd" d="M405.856 0.603638L174.846 0.658514C167.188 0.658514 160.963 6.88321 160.963 14.5422L161.018 376.287C161.018 377.196 161.755 377.933 162.664 377.933H201.953C202.862 377.933 203.599 377.196 203.599 376.287V355.818C203.599 351.678 206.977 348.3 211.116 348.3H389.285C393.424 348.3 396.802 351.678 396.802 355.818V376.396C396.802 377.297 397.526 378.031 398.427 378.043L419.223 378.317C420.141 378.329 420.891 377.589 420.891 376.671V15.6946C420.891 7.36868 414.165 0.603638 405.856 0.603638ZM174.846 3.9511L405.856 3.89623L406.05 3.89781C412.447 4.00208 417.599 9.2481 417.599 15.6946L417.598 375.003L400.094 374.771L400.095 355.818C400.095 349.86 395.242 345.007 389.285 345.007H211.116L210.928 345.009C205.057 345.109 200.306 349.923 200.306 355.818L200.306 374.64H164.31L164.256 14.542C164.256 8.70166 169.006 3.9511 174.846 3.9511Z" fill="#1E3A8A"/>
<path fill-rule="evenodd" clip-rule="evenodd" d="M459.027 181.202C459.247 181.202 459.466 180.982 459.466 180.762V175.439C459.466 175.22 459.247 175 459.027 175H436.694C436.475 175 436.255 175.22 436.255 175.439V180.762C436.255 180.982 436.475 181.202 436.694 181.202H459.027Z" fill="#1E3A8A"/>
<path fill-rule="evenodd" clip-rule="evenodd" d="M543.036 181.202C543.255 181.202 543.475 180.982 543.475 180.762V175.439C543.475 175.22 543.255 175 543.036 175H520.703C520.484 175 520.264 175.22 520.264 175.439V180.762C520.264 180.982 520.484 181.202 520.703 181.202H543.036Z" fill="#1E3A8A"/>
<path fill-rule="evenodd" clip-rule="evenodd" d="M547.81 0.493896L406.57 0.548773L418.696 9.60336L417.983 376.396L450.906 376.232V356.86C450.906 351.812 455.022 347.696 460.07 347.696H522.569C527.617 347.696 531.732 351.812 531.732 356.86V376.616H561.198V13.9386C561.253 6.53029 555.217 0.493896 547.81 0.493896ZM420.727 23.9261H561.034V27.2187H420.727V23.9261ZM420.727 59.7054H561.034V62.998H420.727V59.7054ZM420.891 111.344V108.051H561.034V111.344H420.891ZM561.034 135.105V138.398H420.891V135.105H561.034ZM420.891 84.3448V81.0522H561.034V84.3448H420.891ZM472.855 254.516C472.471 254.9 472.032 255.065 471.538 255.065H467.752V262.583C467.752 263.077 467.587 263.571 467.203 263.9C466.819 264.284 466.38 264.449 465.886 264.449C465.393 264.449 464.899 264.284 464.57 263.9C464.24 263.516 464.021 263.077 464.021 262.583V255.065H448.931C448.437 255.065 447.943 254.9 447.614 254.516C447.23 254.132 447.065 253.693 447.065 253.199C447.065 252.815 447.175 252.431 447.395 252.102L464.35 227.627C464.679 227.133 465.228 226.858 465.886 226.858C466.38 226.858 466.874 227.023 467.203 227.407C467.587 227.791 467.752 228.23 467.752 228.724V251.333H471.538C472.032 251.333 472.526 251.498 472.855 251.882C473.239 252.266 473.404 252.705 473.404 253.199C473.404 253.693 473.239 254.132 472.855 254.516ZM495.133 261.705C493.322 263.516 491.072 264.449 488.493 264.449C485.914 264.449 483.665 263.516 481.854 261.705C478.781 258.522 477.19 253.144 477.19 245.626C477.19 238.108 478.726 232.73 481.854 229.548C483.665 227.737 485.914 226.804 488.493 226.804C491.072 226.804 493.322 227.737 495.133 229.548C498.206 232.73 499.797 238.108 499.797 245.626C499.797 253.144 498.206 258.522 495.133 261.705ZM529.318 254.516C528.934 254.9 528.495 255.065 528.001 255.065H524.215V262.583C524.215 263.077 524.05 263.571 523.666 263.9C523.282 264.284 522.843 264.449 522.349 264.449C521.856 264.449 521.362 264.284 521.032 263.9C520.703 263.516 520.484 263.077 520.484 262.583V255.065H505.394C504.9 255.065 504.406 254.9 504.077 254.516C503.693 254.132 503.528 253.693 503.528 253.199C503.528 252.815 503.638 252.431 503.858 252.102L520.813 227.627C521.142 227.133 521.691 226.858 522.349 226.858C522.843 226.858 523.337 227.023 523.666 227.407C524.05 227.791 524.215 228.23 524.215 228.724V251.333H528.001C528.495 251.333 528.989 251.498 529.318 251.882C529.702 252.266 529.867 252.705 529.867 253.199C529.922 253.693 529.702 254.132 529.318 254.516ZM561.199 199.805H420.891V196.512H561.199V199.805ZM432.963 180.762V175.439C432.963 173.409 434.609 171.708 436.694 171.708H459.027C461.057 171.708 462.759 173.354 462.759 175.439V180.762C462.759 182.793 461.112 184.494 459.027 184.494H436.694C434.664 184.494 432.963 182.793 432.963 180.762ZM476.477 178.074C476.477 176.043 478.123 174.342 480.208 174.342C482.238 174.342 483.939 175.988 483.939 178.074C483.939 180.104 482.293 181.805 480.208 181.805C478.123 181.805 476.477 180.104 476.477 178.074ZM496.176 178.074C496.176 176.043 497.822 174.342 499.907 174.342C501.937 174.342 503.638 175.988 503.638 178.074C503.638 180.104 501.992 181.805 499.907 181.805C497.822 181.805 496.176 180.104 496.176 178.074ZM517.027 180.762V175.439C517.027 173.409 518.673 171.708 520.758 171.708H543.091C545.121 171.708 546.822 173.354 546.822 175.439V180.762C546.822 182.793 545.176 184.494 543.091 184.494H520.758C518.673 184.494 517.027 182.793 517.027 180.762ZM561.199 159.58H420.891V156.288H561.199V159.58Z" fill="#1E3A8A"/>
<path fill-rule="evenodd" clip-rule="evenodd" d="M229.222 31.2344C197.033 36.7254 176.525 45.2229 173.803 56.9412L173.726 57.2973C172.428 63.7877 174.738 69.6838 180.002 74.888C184.275 79.1131 190.382 82.7894 197.855 85.9786C203.068 88.2036 208.641 90.0632 214.212 91.5765L214.696 91.7072C216.285 92.1329 217.777 92.5036 219.147 92.8206L219.751 92.9588L219.57 93.4338C210.345 117.85 208.808 136.759 213.91 151.417L214.044 151.796C218.282 163.657 226.49 172.173 238.999 179.623L239.421 179.872L239.429 179.885C246.351 192.065 255.996 201.214 267.245 206.07L267.566 206.206L267.38 206.403C261.609 212.576 258.38 222.058 260.004 230.019L260.048 230.225L259.633 230.1C246.344 226.181 231.769 228.357 220.08 236.099L219.655 236.383L185.333 224.101C185.212 224.058 185.087 224.029 184.96 224.015C177.856 223.226 172.166 229.937 174.202 236.768L174.35 237.259C178.993 252.466 187.377 263.955 198.112 272.272L198.369 272.47L198.331 272.751C198.022 275.033 197.832 277.518 197.729 280.358L197.7 281.414C197.689 281.953 197.682 282.506 197.678 283.168L197.674 284.446L197.451 284.587C189.133 289.885 181.109 296.595 173.807 305.258C170.17 309.563 170.932 315.699 174.871 320.191L175.141 320.489C184.075 330.184 201.74 334.684 219.105 329.892L219.409 329.806H388.572C396.23 329.806 402.454 323.582 402.454 315.923V41.9255L402.451 41.6897C402.261 33.9088 395.918 26.4504 388.572 26.4504L303.315 26.451L303.383 26.4561C286.2 25.0241 254.878 26.8577 229.222 31.2344ZM176.898 58.2404L176.954 57.9437C178.935 48.0601 198.751 39.7724 229.775 34.4801C255.173 30.1475 286.222 28.3298 303.109 29.7373C303.155 29.7411 303.201 29.743 303.246 29.743H388.572C394.039 29.743 399.111 35.7767 399.162 41.9391L399.162 315.923C399.162 321.763 394.412 326.514 388.572 326.514H219.183C219.029 326.514 218.876 326.535 218.729 326.578C202.194 331.323 185.39 327.025 177.336 318.009C174.393 314.652 173.853 310.305 176.323 307.382C183.676 298.658 191.789 291.976 200.188 286.755C200.671 286.454 200.965 285.926 200.965 285.357L200.971 283.045C200.978 282.056 200.992 281.318 201.019 280.471C201.137 277.229 201.371 274.486 201.768 272.007C201.864 271.402 201.617 270.794 201.126 270.427C190.316 262.37 181.901 251.056 177.356 235.826L177.315 235.683C176.105 231.269 179.713 226.95 184.296 227.261L184.416 227.27L219.341 239.768C219.846 239.949 220.406 239.872 220.844 239.564C232.851 231.1 248.405 229.141 261.994 234.376C263.35 234.899 264.669 233.536 264.102 232.198C260.796 224.391 264.523 213.097 271.351 207.136C271.512 206.995 271.645 206.824 271.741 206.632L271.905 206.303C272.345 205.423 271.92 204.357 270.996 204.02C259.278 199.749 249.171 190.54 242.074 177.872C241.93 177.616 241.721 177.403 241.467 177.255C228.985 169.974 221.01 161.797 217.02 150.334C212.05 136.058 213.776 117.206 223.514 92.3538C223.889 91.3963 223.304 90.3329 222.295 90.137L221.791 90.0342L221.213 89.9105C220.939 89.851 220.644 89.7853 220.328 89.7136L219.521 89.5271C218.152 89.2056 216.661 88.8298 215.075 88.399C209.64 86.9227 204.206 85.1096 199.147 82.9503C183.596 76.3134 175.139 68.0392 176.898 58.2404Z" fill="#1E3A8A"/>
<path fill-rule="evenodd" clip-rule="evenodd" d="M291.453 238.096C292.218 227.771 299.725 222.439 309.76 222.847C318.724 223.212 327.091 228.15 328.085 234.516L328.126 234.801C328.328 236.285 328.352 237.712 328.254 241.25L328.146 244.796C327.943 251.943 328.093 256.229 328.946 261.059C330.203 268.173 332.898 273.996 337.488 278.544C342.952 283.958 351.037 287.465 362.259 288.77C363.162 288.875 363.809 289.692 363.704 290.595C363.599 291.499 362.782 292.146 361.878 292.041C349.964 290.655 341.193 286.85 335.171 280.883C330.052 275.811 327.071 269.371 325.704 261.632L325.603 261.046C324.807 256.279 324.66 251.966 324.842 245.145L324.961 241.22C325.06 237.661 325.032 236.352 324.83 235.015C324.131 230.534 317.202 226.445 309.627 226.137C301.311 225.799 295.474 229.882 294.757 238.091L294.606 239.877C294.42 241.962 294.12 245.168 294.102 245.377L293.991 246.65C293.089 257.389 293.063 265.911 294.399 274.513C297.057 291.619 304.842 303.822 319.452 309.789C320.294 310.133 320.697 311.094 320.354 311.935C320.01 312.777 319.049 313.181 318.207 312.837C302.394 306.379 293.966 293.169 291.146 275.018C289.76 266.101 289.788 257.346 290.712 246.362L291.364 239.163C291.405 238.696 291.436 238.319 291.453 238.096Z" fill="#1E3A8A"/>
<path fill-rule="evenodd" clip-rule="evenodd" d="M302.397 225.452C302.568 224.559 303.43 223.974 304.323 224.144C305.216 224.314 305.801 225.177 305.631 226.07L305.474 226.902C302.945 240.474 302.143 252.9 304.889 258.512C305.289 259.329 304.951 260.315 304.134 260.714C303.317 261.114 302.331 260.776 301.932 259.959C300.063 256.14 299.589 250.033 300.136 242.178C300.518 236.683 301.358 230.896 302.397 225.452Z" fill="#1E3A8A"/>
<path fill-rule="evenodd" clip-rule="evenodd" d="M313.868 225.66C314.045 224.768 314.911 224.189 315.803 224.366C316.695 224.543 317.274 225.409 317.097 226.301L316.945 227.076C314.5 239.73 313.738 251.816 316.512 257.283C316.923 258.094 316.599 259.085 315.788 259.496C314.977 259.908 313.987 259.584 313.575 258.773C311.675 255.026 311.171 249.103 311.686 241.542C312.047 236.262 312.872 230.679 313.868 225.66Z" fill="#1E3A8A"/>
<path fill-rule="evenodd" clip-rule="evenodd" d="M270.935 203.873C283.099 202.712 302.355 211.357 316.617 223.75C317.303 224.346 317.376 225.386 316.78 226.072C316.184 226.759 315.144 226.832 314.458 226.235C300.811 214.378 282.354 206.09 271.248 207.151C270.342 207.237 269.539 206.573 269.452 205.668C269.366 204.763 270.03 203.959 270.935 203.873Z" fill="#1E3A8A"/>
<path fill-rule="evenodd" clip-rule="evenodd" d="M261.593 231.296C262.294 230.717 263.331 230.816 263.91 231.518C268.841 237.491 273.927 241.664 278.722 242.874L279.605 243.091C285.107 244.461 289.01 245.772 292.598 247.488C293.418 247.881 293.765 248.864 293.373 249.684C292.98 250.504 291.997 250.851 291.177 250.459C287.635 248.765 283.714 247.474 277.932 246.07C272.266 244.641 266.713 240.084 261.371 233.614C260.793 232.913 260.892 231.875 261.593 231.296Z" fill="#1E3A8A"/>
<path fill-rule="evenodd" clip-rule="evenodd" d="M280.053 234.236C280.391 233.427 281.299 233.03 282.116 233.317L282.206 233.351L293.51 238.071C294.349 238.421 294.745 239.385 294.395 240.224C294.057 241.033 293.148 241.43 292.332 241.144L292.241 241.109L280.938 236.39C280.099 236.039 279.703 235.075 280.053 234.236Z" fill="#1E3A8A"/>
<path fill-rule="evenodd" clip-rule="evenodd" d="M287.922 221.179C288.345 220.413 289.289 220.116 290.069 220.487L290.158 220.533L299.706 225.801C300.502 226.24 300.791 227.242 300.352 228.038C299.929 228.805 298.985 229.101 298.205 228.73L298.116 228.684L288.568 223.416C287.772 222.977 287.483 221.975 287.922 221.179Z" fill="#1E3A8A"/>
<path fill-rule="evenodd" clip-rule="evenodd" d="M174.02 308.881C174.612 308.238 175.598 308.173 176.267 308.717L176.53 308.946C176.567 308.977 176.609 309.012 176.656 309.051C176.94 309.286 177.281 309.552 177.675 309.84C178.816 310.672 180.151 311.507 181.666 312.288C185.642 314.337 190.103 315.639 194.964 315.835C201.175 316.085 207.64 314.505 214.307 310.706C215.097 310.256 216.103 310.531 216.553 311.321C217.003 312.111 216.727 313.117 215.937 313.567C208.735 317.671 201.659 319.4 194.831 319.125C189.459 318.908 184.538 317.472 180.158 315.215C178.614 314.419 177.236 313.57 176.032 312.714L175.735 312.5C174.959 311.933 174.415 311.483 174.115 311.207C173.447 310.591 173.404 309.55 174.02 308.881Z" fill="#1E3A8A"/>
<path fill-rule="evenodd" clip-rule="evenodd" d="M177.438 226.75C178.284 226.523 179.154 226.999 179.426 227.821L179.538 228.199L179.642 228.53C179.68 228.647 179.722 228.771 179.766 228.901L179.835 229.102C180.181 230.093 180.623 231.201 181.169 232.399C182.734 235.829 184.816 239.261 187.478 242.461C192.127 248.048 198.038 252.317 205.382 254.765C206.244 255.053 206.71 255.985 206.423 256.848C206.135 257.71 205.203 258.177 204.341 257.889C196.385 255.237 189.971 250.604 184.947 244.567C182.086 241.128 179.854 237.448 178.174 233.765C177.643 232.602 177.202 231.512 176.843 230.515L176.727 230.187C176.496 229.525 176.348 229.042 176.274 228.767C176.039 227.889 176.56 226.986 177.438 226.75Z" fill="#1E3A8A"/>
<path fill-rule="evenodd" clip-rule="evenodd" d="M343.566 54.9229L343.318 55.0905L330.975 63.3056C325.866 66.7153 321.779 69.511 317.81 72.3406L316.816 73.0515C301.681 83.9222 291.162 93.3981 285.299 102.344C280.137 110.219 278.999 117.193 282.246 123.405L282.329 123.562L282.481 123.794C288.587 133.039 297.052 136.933 307.462 136.478L307.781 136.463C315.382 136.068 323.586 133.407 331.936 129.181C335.128 127.566 338.089 125.851 340.903 124.058L341.373 123.757C341.904 123.416 342.385 123.1 342.952 122.723L344.181 121.905L344.326 121.814C344.347 121.8 344.368 121.788 344.388 121.776L344.957 121.453C345.806 120.986 345.707 121.189 346.497 121.978C346.771 122.252 346.939 122.615 346.973 123.001C348.988 146.341 354.491 162.824 363.103 173.661C370.311 182.73 379.525 187.74 391.237 189.956C392.13 190.124 392.717 190.986 392.548 191.879C392.38 192.772 391.518 193.36 390.625 193.191C378.182 190.837 368.262 185.443 360.526 175.709C351.914 164.873 346.333 148.9 344.027 126.795L343.946 126.011L343.838 126.083C343.537 126.28 343.239 126.472 342.918 126.678L342.672 126.835C339.771 128.682 336.719 130.451 333.422 132.119C324.699 136.534 316.083 139.329 307.952 139.751C296.163 140.364 286.384 135.881 279.531 125.3C279.508 125.263 279.486 125.226 279.465 125.188C275.422 117.709 276.721 109.426 282.546 100.539C288.82 90.9655 299.919 81.0501 315.899 69.6594L317.145 68.7748C320.761 66.2187 324.543 63.6397 329.146 60.5674L341.55 52.3117C341.611 52.2706 341.668 52.2319 341.721 52.1957C342.474 51.6863 343.498 51.8838 344.007 52.6369C344.517 53.39 344.319 54.4134 343.566 54.9229Z" fill="#1E3A8A"/>
<path fill-rule="evenodd" clip-rule="evenodd" d="M296.282 28.065C297.088 27.6433 298.082 27.9544 298.504 28.7599C298.926 29.5655 298.615 30.5603 297.809 30.982C289.311 35.4316 280.35 42.1922 270.396 51.3675C250.571 69.6441 238.569 92.5117 234.56 117.117C230.991 139.015 234.078 161.158 242.553 178.333C242.955 179.148 242.62 180.135 241.805 180.538C240.99 180.94 240.003 180.605 239.6 179.79C230.817 161.989 227.633 139.152 231.31 116.587C235.436 91.2671 247.789 67.7305 268.165 48.9465C278.313 39.5921 287.49 32.6686 296.282 28.065Z" fill="#1E3A8A"/>
<path fill-rule="evenodd" clip-rule="evenodd" d="M297.924 110.082C300.409 110.082 302.423 108.067 302.423 105.582C302.423 103.097 300.409 101.082 297.924 101.082C295.439 101.082 293.424 103.097 293.424 105.582C293.424 108.067 295.439 110.082 297.924 110.082Z" fill="#1E3A8A"/>
<path fill-rule="evenodd" clip-rule="evenodd" d="M303.027 124.185C305.512 124.185 307.526 122.17 307.526 119.685C307.526 117.2 305.512 115.185 303.027 115.185C300.542 115.185 298.527 117.2 298.527 119.685C298.527 122.17 300.542 124.185 303.027 124.185Z" fill="#1E3A8A"/>
<path fill-rule="evenodd" clip-rule="evenodd" d="M319.159 128.465C321.644 128.465 323.659 126.451 323.659 123.966C323.659 121.48 321.644 119.466 319.159 119.466C316.674 119.466 314.66 121.48 314.66 123.966C314.66 126.451 316.674 128.465 319.159 128.465Z" fill="#1E3A8A"/>
<path fill-rule="evenodd" clip-rule="evenodd" d="M316.306 115.954C322.246 115.954 327.061 111.138 327.061 105.198C327.061 99.2577 322.246 94.4421 316.306 94.4421C310.366 94.4421 305.551 99.2577 305.551 105.198C305.551 111.138 310.366 115.954 316.306 115.954Z" fill="#1E3A8A"/>
<path fill-rule="evenodd" clip-rule="evenodd" d="M198.661 61.9553C201.146 61.9553 203.16 59.9407 203.16 57.4555C203.16 54.9703 201.146 52.9556 198.661 52.9556C196.176 52.9556 194.161 54.9703 194.161 57.4555C194.161 59.9407 196.176 61.9553 198.661 61.9553Z" fill="#1E3A8A"/>
<path fill-rule="evenodd" clip-rule="evenodd" d="M203.929 50.1021C209.032 50.2667 213.312 46.2607 213.476 41.1572C213.531 39.6207 213.037 37.7 212.434 36.383C206.178 37.261 200.417 39.5658 195.204 41.3767C195.094 46.4802 198.88 49.9374 203.929 50.1021Z" fill="#1E3A8A"/>
<path fill-rule="evenodd" clip-rule="evenodd" d="M181.047 49.7728C180.937 52.4617 183.187 54.6568 185.93 54.3824C187.906 54.2178 189.607 52.6812 189.991 50.7057C190.43 48.1814 188.729 45.8766 186.369 45.4376C184.449 46.5351 182.693 47.7424 181.157 49.1143C181.047 49.3887 181.047 49.6082 181.047 49.7728Z" fill="#1E3A8A"/>
<path fill-rule="evenodd" clip-rule="evenodd" d="M224.337 265.453C228.018 264.866 230.7 262.498 230.329 260.164C229.957 257.83 226.671 256.413 222.991 256.999C219.31 257.585 216.627 259.953 216.999 262.288C217.371 264.622 220.656 266.039 224.337 265.453Z" fill="#1E3A8A"/>
<path fill-rule="evenodd" clip-rule="evenodd" d="M233.778 296.843C237.459 296.256 240.142 293.888 239.77 291.554C239.398 289.22 236.113 287.802 232.432 288.389C228.751 288.975 226.069 291.343 226.44 293.677C226.812 296.012 230.098 297.429 233.778 296.843Z" fill="#1E3A8A"/>
<path fill-rule="evenodd" clip-rule="evenodd" d="M241.68 259.729L249.801 264.833C250.953 265.546 251.283 267.138 250.514 268.235L245.631 275.479C244.478 277.18 241.79 276.741 241.296 274.711L238.058 262.418C237.51 260.278 239.814 258.577 241.68 259.729Z" fill="#1E3A8A"/>
<path fill-rule="evenodd" clip-rule="evenodd" d="M252.947 255.922C253.08 255.022 253.917 254.401 254.816 254.534C260.227 255.334 261.784 258.466 258.857 261.797C258.278 262.456 257.511 263.132 256.626 263.788L256.451 263.915L256.529 263.919C258.059 264.003 259.436 264.196 260.519 264.513L260.719 264.574C262.852 265.253 264.167 266.577 263.823 268.557C263.536 270.211 262.006 271.872 259.186 273.816C258.437 274.332 257.412 274.144 256.896 273.395C256.38 272.647 256.569 271.622 257.317 271.105C258.495 270.293 259.363 269.574 259.927 268.962C260.268 268.592 260.462 268.302 260.541 268.115L260.55 268.092L260.529 268.075C260.392 267.976 260.162 267.862 259.844 267.753L259.721 267.712C257.611 267.041 253.354 267.009 249.52 267.508C247.579 267.761 246.897 265.019 248.731 264.334C251.693 263.226 254.96 261.243 256.384 259.624C256.669 259.299 256.857 259.015 256.947 258.799L256.992 258.678C256.994 258.673 256.996 258.67 256.998 258.667L257.003 258.663L256.992 258.651C256.944 258.599 256.832 258.514 256.627 258.411L256.545 258.371C256.054 258.137 255.316 257.936 254.334 257.791C253.435 257.658 252.814 256.821 252.947 255.922Z" fill="#1E3A8A"/>
<path fill-rule="evenodd" clip-rule="evenodd" d="M230.157 231.709C231.024 231.436 231.948 231.917 232.221 232.785C234.111 238.789 236.909 244.856 240.668 250.964C241.144 251.739 240.903 252.753 240.129 253.229C239.354 253.706 238.34 253.464 237.864 252.69C233.965 246.354 231.054 240.04 229.081 233.773C228.808 232.906 229.289 231.982 230.157 231.709Z" fill="#1E3A8A"/>
<path fill-rule="evenodd" clip-rule="evenodd" d="M244.937 228.895C245.843 228.815 246.642 229.485 246.722 230.39C247.288 236.783 248.712 243.326 251.079 250.016C251.382 250.873 250.933 251.814 250.076 252.117C249.219 252.42 248.278 251.971 247.975 251.114C245.516 244.163 244.033 237.35 243.443 230.68C243.362 229.775 244.032 228.976 244.937 228.895Z" fill="#1E3A8A"/>
<path fill-rule="evenodd" clip-rule="evenodd" d="M250.694 293.418C250.819 292.517 251.65 291.888 252.55 292.012C253.451 292.137 254.08 292.968 253.956 293.868C252.422 304.98 253.976 316.674 257.952 327.547C261.34 336.813 266.315 344.802 270.92 348.878C271.601 349.48 271.665 350.521 271.062 351.202C270.46 351.883 269.419 351.946 268.738 351.344C263.683 346.87 258.423 338.422 254.86 328.678C250.708 317.323 249.082 305.094 250.694 293.418Z" fill="#1E3A8A"/>
<path fill-rule="evenodd" clip-rule="evenodd" d="M262.072 288.929C262.978 288.857 263.771 289.533 263.843 290.44C264.735 301.656 268.755 312.757 274.957 322.517C280.247 330.842 286.811 337.565 292.192 340.549C292.987 340.99 293.275 341.992 292.834 342.787C292.393 343.582 291.391 343.87 290.596 343.429C284.686 340.152 277.743 333.04 272.178 324.283C265.702 314.091 261.498 302.483 260.561 290.7C260.489 289.794 261.166 289.001 262.072 288.929Z" fill="#1E3A8A"/>
<path fill-rule="evenodd" clip-rule="evenodd" d="M750.616 374.86C751.525 374.86 752.262 375.597 752.262 376.506C752.262 377.383 751.577 378.099 750.713 378.15L750.616 378.152H2.32926C1.42011 378.152 0.683105 377.415 0.683105 376.506C0.683105 375.629 1.36841 374.913 2.23254 374.863L2.32926 374.86H750.616Z" fill="#1E3A8A"/>
</svg>
