<svg width="361" height="202" viewBox="0 0 361 202" fill="none" xmlns="http://www.w3.org/2000/svg">
<path fill-rule="evenodd" clip-rule="evenodd" d="M56.2442 -371.748C110.802 -386.097 158.818 -471.912 207.345 -443.143C258.532 -412.797 208.944 -323.837 230.57 -268.399C244.327 -233.134 287.404 -218.852 307.383 -186.7C331.821 -147.37 357.859 -106.292 360.039 -60.0399C362.369 -10.6171 352.881 43.9878 319.997 80.9567C287.108 117.931 229.643 116.662 184.612 137.18C140.557 157.254 104.656 200.831 56.2442 201.135C7.83675 201.439 -40.1087 174.404 -72.9018 138.795C-104.08 104.94 -96.8959 50.8038 -119.25 10.5726C-137.271 -21.8616 -175.077 -39.3379 -190.603 -73.0378C-207.479 -109.666 -212.687 -150.267 -211.929 -190.588C-211.077 -235.965 -214.901 -287.571 -185.917 -322.496C-156.88 -357.486 -105.441 -363.535 -60.8834 -372.597C-22.1374 -380.477 18.0054 -361.69 56.2442 -371.748Z" fill="#F97316"/>
</svg>
