<svg width="377" height="202" viewBox="0 0 377 202" fill="none" xmlns="http://www.w3.org/2000/svg">
<path fill-rule="evenodd" clip-rule="evenodd" d="M72.2442 -371.748C126.802 -386.097 174.818 -471.912 223.345 -443.143C274.532 -412.797 224.944 -323.837 246.57 -268.399C260.327 -233.134 303.404 -218.852 323.383 -186.7C347.821 -147.37 373.859 -106.292 376.039 -60.0399C378.369 -10.6171 368.881 43.9878 335.997 80.9567C303.108 117.931 245.643 116.662 200.612 137.18C156.557 157.254 120.656 200.831 72.2442 201.135C23.8367 201.439 -24.1087 174.404 -56.9018 138.795C-88.0799 104.94 -80.8959 50.8038 -103.25 10.5726C-121.271 -21.8616 -159.077 -39.3379 -174.603 -73.0378C-191.479 -109.666 -196.687 -150.267 -195.929 -190.588C-195.077 -235.965 -198.901 -287.571 -169.917 -322.496C-140.88 -357.486 -89.4405 -363.535 -44.8834 -372.597C-6.13741 -380.477 34.0054 -361.69 72.2442 -371.748Z" fill="#F97316"/>
</svg>
