<svg width="465" height="245" viewBox="0 0 465 245" fill="none" xmlns="http://www.w3.org/2000/svg">
<path fill-rule="evenodd" clip-rule="evenodd" d="M268.244 -328.748C322.802 -343.097 370.818 -428.912 419.345 -400.143C470.532 -369.797 420.944 -280.837 442.57 -225.399C456.327 -190.134 499.404 -175.852 519.383 -143.7C543.821 -104.37 569.859 -63.2922 572.039 -17.0399C574.369 32.3829 564.881 86.9878 531.997 123.957C499.108 160.931 441.643 159.662 396.612 180.18C352.557 200.254 316.656 243.831 268.244 244.135C219.837 244.439 171.891 217.404 139.098 181.795C107.92 147.94 115.104 93.8038 92.7503 53.5726C74.7288 21.1384 36.923 3.66208 21.3966 -30.0378C4.52121 -66.6658 -0.686734 -107.267 0.07074 -147.588C0.92319 -192.965 -2.9007 -244.571 26.0829 -279.496C55.1203 -314.486 106.559 -320.535 151.117 -329.597C189.863 -337.477 230.005 -318.69 268.244 -328.748Z" fill="#FCD34D"/>
</svg>
