<svg width="800" height="380" viewBox="0 0 800 380" fill="none" xmlns="http://www.w3.org/2000/svg">
<path fill-rule="evenodd" clip-rule="evenodd" d="M289.561 -322.315C324.108 -378.644 295.239 -490.151 359.603 -505.107C427.496 -520.884 457.582 -405.443 520.78 -376.045C560.983 -357.344 609.002 -380.146 651.949 -369.119C704.481 -355.63 759.785 -341.957 799.089 -304.582C841.087 -264.646 877.282 -210.754 879.396 -152.838C881.51 -94.9126 831.854 -49.4465 810.366 4.38684C789.343 57.0534 794.255 123.006 753.534 162.471C712.816 201.933 650.349 217.887 593.759 214.312C539.956 210.914 502.191 159.284 450.692 143.344C409.173 130.493 363.027 146.323 322.595 130.38C278.65 113.052 241.361 82.9121 209.346 48.1777C173.316 9.08803 128.285 -31.4853 124.526 -84.5134C120.76 -137.64 159.39 -184.419 189.756 -228.174C216.162 -266.222 265.347 -282.836 289.561 -322.315Z" fill="#FCD34D"/>
</svg>
