<svg width="374" height="144" viewBox="0 0 374 144" fill="none" xmlns="http://www.w3.org/2000/svg">
<path fill-rule="evenodd" clip-rule="evenodd" d="M112.577 -204.945C159.474 -213.685 200.748 -265.956 242.46 -248.433C286.459 -229.949 243.835 -175.763 262.424 -141.996C274.249 -120.515 311.277 -111.817 328.45 -92.2325C349.457 -68.2769 371.839 -43.256 373.713 -15.0837C375.715 15.0198 367.56 48.2798 339.293 70.7976C311.023 93.3189 261.627 92.5457 222.92 105.043C185.051 117.27 154.191 143.814 112.577 143.998C70.967 144.183 29.7542 127.717 1.5659 106.027C-25.2341 85.406 -19.0589 52.4314 -38.2738 27.9265C-53.7647 8.17081 -86.2618 -2.47404 -99.6079 -23.0007C-114.114 -45.3109 -118.59 -70.0409 -117.939 -94.6008C-117.206 -122.24 -120.493 -153.673 -95.5797 -174.946C-70.6197 -196.259 -26.4037 -199.943 11.8966 -205.463C45.2019 -210.263 79.7078 -198.82 112.577 -204.945Z" fill="#93C5FD"/>
</svg>
