<svg width="705" height="396" viewBox="0 0 705 396" fill="none" xmlns="http://www.w3.org/2000/svg">
<path fill-rule="evenodd" clip-rule="evenodd" d="M149.886 2.636C139.819 5.6393 131.307 11.6885 124.25 19.8628C120.637 24.0478 117.638 28.5248 115.214 33.0035L114.963 33.4712C114.304 34.7095 113.729 35.8754 113.236 36.9504L113.109 37.2295L112.95 37.17C99.6483 32.221 87.8442 31.936 77.5209 35.6726C68.6925 38.8681 61.3471 44.839 55.3569 52.7553C52.1451 56.9997 49.5254 61.5375 47.448 66.076L47.2332 66.5497C46.6699 67.8039 46.1823 68.9845 45.7675 70.073L45.5554 70.6374L45.5458 70.6363C30.5024 68.9613 18.3247 71.616 8.92156 77.8378C-7.26585 88.4876 0.358439 113.69 19.7221 113.69H342.458C343.635 113.69 344.549 112.664 344.414 111.495L344.377 111.205C344.325 110.836 344.24 110.311 344.113 109.648C343.841 108.235 343.467 106.666 342.971 104.98C341.558 100.168 339.457 95.3559 336.528 90.8535C332.13 84.0924 326.251 78.646 318.7 75.0192L318.289 74.8245C309.771 70.8397 299.477 69.315 287.282 70.6199L287.087 70.6414L287.026 70.4746C286.529 69.1426 285.919 67.6628 285.19 66.0717C283.109 61.5309 280.486 56.9908 277.273 52.7442C271.276 44.8187 263.928 38.8421 255.1 35.6462L254.722 35.5112C244.62 31.9625 233.115 32.2538 220.193 36.982L219.528 37.2288L219.581 37.3445C218.987 36.0295 218.265 34.5687 217.41 32.9983C214.974 28.519 211.962 24.0415 208.338 19.8559C204.775 15.7418 200.802 12.1303 196.4 9.16475C196.333 9.11982 196.264 9.07903 196.192 9.04259L192.189 7.00707L192.083 6.95721C176.347 0.100003 162.285 -1.06266 149.886 2.636ZM190.46 10.5472L194.296 12.4974L194.201 12.4326C198.299 15.1937 202.016 18.5725 205.361 22.4353C208.786 26.3916 211.643 30.6374 213.951 34.8815C214.758 36.3643 215.438 37.7386 215.993 38.9678L216.26 39.5696C216.342 39.7573 216.416 39.9321 216.483 40.0932L216.631 40.4604C217.025 41.489 218.186 41.9944 219.207 41.5822C232.425 36.2449 243.877 35.7728 253.76 39.3508C261.803 42.2624 268.564 47.7614 274.133 55.1219C277.16 59.1223 279.641 63.4182 281.61 67.7135C282.298 69.215 282.872 70.6069 283.336 71.852L283.559 72.4618C283.604 72.5886 283.647 72.7096 283.686 72.8245L283.867 73.3652C284.149 74.2796 285.048 74.8584 285.997 74.7373C298.448 73.1486 308.702 74.5867 316.996 78.5708C323.861 81.8683 329.205 86.8194 333.227 93.0025C335.932 97.1594 337.881 101.625 339.193 106.091L339.327 106.556C339.589 107.478 339.81 108.358 339.995 109.187L340.116 109.751H19.7222C4.25954 109.751 -1.82861 89.6258 11.09 81.1266C20.0092 75.225 31.7656 72.8032 46.6421 74.7367C47.5535 74.8552 48.4197 74.3276 48.739 73.4766L48.8998 72.9913L49.0184 72.6468C49.0819 72.4656 49.1517 72.2709 49.2279 72.0635L49.3061 71.8518C49.7694 70.6076 50.342 69.2166 51.0288 67.7162C52.9936 63.4238 55.472 59.1308 58.497 55.1332C64.0596 47.782 70.8175 42.2887 78.861 39.3773C88.7454 35.7995 100.205 36.2638 113.439 41.5833C114.462 41.9943 115.622 41.486 116.014 40.4557L116.161 40.0888L116.304 39.7488C116.405 39.5102 116.52 39.2482 116.648 38.964C117.2 37.7352 117.875 36.3614 118.677 34.8792C120.973 30.6367 123.817 26.3925 127.231 22.4378C133.828 14.7954 141.729 9.18066 151.012 6.41144C162.359 3.02658 175.302 4.04765 190.003 10.3497L190.46 10.5472Z" fill="#1E3A8A"/>
<path fill-rule="evenodd" clip-rule="evenodd" d="M347.375 293.279C348.243 292.623 349.477 292.795 350.133 293.663C350.789 294.531 350.617 295.767 349.749 296.422C346.534 298.853 343.576 301.676 340.872 304.814C337.483 308.747 334.658 312.969 332.375 317.189C331.658 318.516 331.042 319.755 330.526 320.881L330.357 321.252C330.199 321.605 330.06 321.924 329.942 322.206L329.779 322.602C329.755 322.663 329.737 322.708 329.727 322.735C329.335 323.765 328.175 324.273 327.152 323.863C313.919 318.543 302.459 318.079 292.574 321.657C284.531 324.568 277.773 330.061 272.21 337.412C269.185 341.41 266.707 345.703 264.742 349.995C264.124 351.346 263.598 352.608 263.161 353.753L263.019 354.131C262.939 354.347 262.865 354.55 262.797 354.74L262.516 355.563L262.491 355.643C262.208 356.56 261.306 357.14 260.355 357.016C245.479 355.082 233.722 357.504 224.806 363.404C212.06 371.828 217.873 391.629 232.975 392.024L233.435 392.03H553.761L553.73 391.881C553.528 390.935 553.276 389.917 552.97 388.842L552.836 388.378C551.52 383.916 549.568 379.454 546.862 375.301C538.66 362.712 525.447 355.542 505.793 356.505C504.707 356.558 503.783 355.72 503.73 354.634C503.676 353.547 504.514 352.623 505.6 352.57C526.691 351.536 541.214 359.418 550.161 373.15C553.092 377.648 555.195 382.455 556.613 387.263C557.11 388.948 557.486 390.515 557.758 391.927L557.862 392.485C557.965 393.063 558.029 393.498 558.061 393.772C558.193 394.903 557.343 395.901 556.222 395.966L556.105 395.97H233.435C214.09 395.97 206.5 370.78 222.635 360.117C231.926 353.969 243.926 351.304 258.723 352.858L259.269 352.917L259.329 352.756C259.775 351.558 260.313 350.24 260.946 348.829L261.161 348.355C263.239 343.817 265.858 339.279 269.07 335.035C275.06 327.118 282.406 321.147 291.234 317.952C301.427 314.263 313.063 314.494 326.159 319.264L326.823 319.509L326.945 319.24C327.435 318.171 328.007 317.011 328.662 315.779L328.912 315.314C331.321 310.859 334.302 306.405 337.889 302.242C340.769 298.9 343.927 295.886 347.375 293.279Z" fill="#1E3A8A"/>
<path fill-rule="evenodd" clip-rule="evenodd" d="M510.101 117.281C522.363 113.623 536.252 114.72 551.779 121.378L552.297 121.602L552.403 121.652L556.407 123.688C556.478 123.724 556.548 123.765 556.615 123.81C561.017 126.776 564.99 130.387 568.552 134.501C572.176 138.687 575.188 143.164 577.625 147.644C578.394 149.057 579.056 150.382 579.614 151.591L579.742 151.874L579.903 151.814C593.03 146.907 604.703 146.562 614.936 150.157L615.315 150.291C624.142 153.487 631.491 159.464 637.488 167.389C640.701 171.636 643.323 176.176 645.404 180.717C646.06 182.149 646.62 183.491 647.088 184.716L647.302 185.287L647.497 185.265C659.692 183.96 669.986 185.485 678.504 189.47L678.915 189.664C686.465 193.291 692.344 198.738 696.742 205.499C699.671 210.001 701.772 214.813 703.186 219.625C703.681 221.312 704.056 222.88 704.327 224.294L704.43 224.852C704.533 225.431 704.597 225.866 704.628 226.14C704.759 227.271 703.909 228.267 702.789 228.332L702.672 228.336H509.963C508.875 228.336 507.994 227.454 507.994 226.366C507.994 225.317 508.813 224.459 509.847 224.399L509.963 224.396L700.33 224.395L700.299 224.242C700.097 223.296 699.847 222.277 699.541 221.201L699.407 220.736C698.095 216.27 696.146 211.805 693.442 207.648C689.419 201.465 684.075 196.513 677.21 193.216C668.916 189.232 658.662 187.794 646.211 189.383C645.302 189.499 644.438 188.972 644.119 188.123L643.958 187.638C643.847 187.311 643.712 186.929 643.551 186.497C643.086 185.252 642.512 183.86 641.824 182.359C639.856 178.063 637.374 173.768 634.347 169.767C628.778 162.407 622.017 156.908 613.974 153.996C604.091 150.418 592.64 150.89 579.421 156.227C578.437 156.625 577.322 156.169 576.891 155.214L576.697 154.738L576.553 154.398C576.451 154.16 576.336 153.897 576.207 153.613C575.652 152.384 574.972 151.009 574.166 149.527C571.857 145.283 569.001 141.037 565.575 137.081C562.376 133.386 558.836 130.134 554.947 127.442L554.51 127.143L550.674 125.192L550.217 124.995C535.685 118.765 522.871 117.696 511.618 120.942L511.226 121.057C501.943 123.826 494.042 129.441 487.445 137.083C484.031 141.038 481.188 145.282 478.891 149.524C478.089 151.007 477.414 152.38 476.862 153.609L476.68 154.019C476.623 154.15 476.569 154.275 476.518 154.394L476.241 155.067C476.236 155.08 476.232 155.092 476.228 155.101C475.836 156.131 474.676 156.64 473.654 156.229C460.42 150.909 448.96 150.445 439.075 154.023C431.032 156.934 424.274 162.427 418.711 169.778C415.686 173.776 413.208 178.069 411.243 182.361C410.625 183.712 410.099 184.974 409.663 186.119L409.52 186.497C409.44 186.713 409.366 186.916 409.298 187.106L409.017 187.929L408.992 188.009C408.709 188.926 407.807 189.506 406.856 189.382C391.98 187.448 380.223 189.87 371.309 195.769C370.401 196.369 369.18 196.12 368.58 195.213C367.98 194.305 368.229 193.083 369.136 192.483C378.427 186.335 390.427 183.67 405.224 185.224L405.77 185.283L405.83 185.122C406.276 183.924 406.814 182.606 407.448 181.195L407.662 180.721C409.74 176.183 412.36 171.645 415.571 167.401C421.561 159.484 428.907 153.513 437.735 150.318C447.928 146.629 459.564 146.86 472.66 151.63L473.324 151.875L473.451 151.596C473.944 150.521 474.518 149.355 475.177 148.116L475.428 147.649C477.852 143.17 480.852 138.693 484.465 134.508C491.521 126.334 500.033 120.285 510.101 117.281Z" fill="#1E3A8A"/>
<path fill-rule="evenodd" clip-rule="evenodd" d="M440.519 196.884C444.063 196.884 447.608 197.081 451.021 197.475V80.7283C451.021 74.2935 445.77 69.0405 439.337 69.0405H133.142C126.71 69.0405 121.459 74.2935 121.459 80.7283V262.874C121.459 269.309 126.71 274.561 133.142 274.561H349.678C356.57 230.568 394.573 196.884 440.519 196.884Z" fill="#FB923C"/>
<path fill-rule="evenodd" clip-rule="evenodd" d="M441.478 73.4589C442.338 72.7923 443.575 72.949 444.241 73.8088C444.882 74.6356 444.762 75.8114 443.987 76.4932L443.891 76.5726L293.524 193.183C289.27 196.51 283.529 196.563 279.234 193.346L279.028 193.188L128.654 76.5726C127.794 75.906 127.638 74.6687 128.304 73.8088C128.945 72.9821 130.113 72.8054 130.966 73.3856L131.067 73.4589L281.447 190.079C284.286 192.3 288.047 192.344 290.929 190.208L291.105 190.074L441.478 73.4589Z" fill="#1E3A8A"/>
<path fill-rule="evenodd" clip-rule="evenodd" d="M218.082 143.073C218.862 142.315 220.108 142.333 220.866 143.113C221.594 143.861 221.607 145.041 220.917 145.805L220.827 145.898L126.376 237.759C125.596 238.517 124.35 238.5 123.591 237.719C122.864 236.971 122.851 235.791 123.541 235.027L123.631 234.934L218.082 143.073Z" fill="#1E3A8A"/>
<path fill-rule="evenodd" clip-rule="evenodd" d="M352.468 143.111C353.196 142.363 354.374 142.318 355.156 142.987L355.252 143.075L413.144 199.478C413.923 200.237 413.939 201.484 413.18 202.263C412.452 203.012 411.274 203.057 410.492 202.388L410.396 202.3L352.504 145.897C351.725 145.138 351.709 143.891 352.468 143.111Z" fill="#1E3A8A"/>
<path fill-rule="evenodd" clip-rule="evenodd" d="M440.519 194.914C388.645 194.914 346.593 236.982 346.593 288.876C346.593 340.769 388.645 382.837 440.519 382.837C492.393 382.837 534.445 340.769 534.445 288.876C534.445 236.982 492.393 194.914 440.519 194.914ZM440.519 198.854C490.218 198.854 530.507 239.158 530.507 288.876C530.507 338.593 490.218 378.898 440.519 378.898C390.82 378.898 350.531 338.593 350.531 288.876C350.531 239.158 390.82 198.854 440.519 198.854Z" fill="#1E3A8A"/>
<path fill-rule="evenodd" clip-rule="evenodd" d="M512.916 201.152C509.109 198.788 504.055 199.97 501.692 203.778L481.608 236.084C469.662 226.431 454.5 220.653 438.025 220.653C399.693 220.653 368.516 251.843 368.516 290.189C368.516 328.535 399.693 359.725 438.025 359.725C476.357 359.725 507.534 328.535 507.534 290.189C507.534 274.364 502.218 259.788 493.291 248.034L515.476 212.314C517.905 208.506 516.723 203.516 512.916 201.152ZM502.415 290.189C502.415 325.712 473.534 354.603 438.025 354.603C402.516 354.603 373.635 325.712 373.635 290.189C373.635 254.666 402.516 225.775 438.025 225.775C453.515 225.775 467.758 231.29 478.851 240.417L442.488 298.922L421.419 270.884C418.728 267.273 413.608 266.551 409.998 269.243C406.388 271.935 405.666 277.057 408.357 280.668L436.581 318.226C438.156 320.262 440.519 321.51 443.079 321.51C443.21 321.51 443.342 321.51 443.407 321.51C446.098 321.378 448.527 319.934 449.971 317.701L490.337 252.827C497.951 263.333 502.415 276.269 502.415 290.189Z" fill="#1E3A8A"/>
</svg>
